:SAMPLES-PER-SECOND 30
:FULLY-SPECIFIED
:DEGREES
150
root  -7.16977 38.6261 11.0467 178.675 56.0564 175.581
RightUpLeg  -18.9565 -8.99713 -12.6611
RightLeg  9.91313 -5.45246 -2.28025
RightFoot  7.96889 -3.14395 18.6562
RightToes  -1.39699e-009 0 -3.6325e-017
Spine  7.49845 -0.876447 -12.4072
Spine1  23.8099 -2.97228 2.41484
HEad  -21.0373 43.1137 -16.7588
LeftShoulder1  1.45427 -2.97513 -15.6579
LeftArm  7.80574 -7.90145 -57.8716
LeftForeArm  -18.0141 -71.3275 -40.1785
LeftHand  -0.815962 2.54514 32.8066
RightShoulder  0.553469 -0.619927 12.2126
RightArm  8.47306 -16.1693 58.9581
RightForeArm  139.532 72.8588 143.937
RightHand  -0.53956 2.8092 -7.85493
LeftUpLeg  -6.27154 -6.00827 1.7666
LeftLeg  23.4217 4.59072 2.51457
LeftFoot  -18.287 -0.55079 -10.8512
LeftToes  3.40148e-010 1.80944e-010 1.01921e-010
151
root  -6.90619 38.5307 11.2218 178.854 55.7335 176.022
RightUpLeg  -19.5487 -9.26262 -12.2949
RightLeg  12.0802 -5.44714 -1.98208
RightFoot  7.45284 -2.94445 17.9662
RightToes  -1.39699e-009 0 -3.6325e-017
Spine  8.21436 -1.16707 -12.2327
Spine1  23.7422 -3.26634 2.14419
HEad  -21.5343 43.9784 -16.9799
LeftShoulder1  1.51265 -3.2345 -15.6613
LeftArm  6.44662 -11.5284 -58.818
LeftForeArm  -20.7333 -70.632 -38.4447
LeftHand  -0.855332 2.43932 33.1567
RightShoulder  0.571913 -0.516109 12.1522
RightArm  7.58039 -15.1946 58.4532
RightForeArm  139.981 72.7374 144.27
RightHand  -0.595892 3.1274 -8.34855
LeftUpLeg  -6.32532 -6.27934 2.50365
LeftLeg  24.3012 4.32729 2.47366
LeftFoot  -18.8751 -0.632105 -11.2858
LeftToes  3.40148e-010 1.80944e-010 1.01921e-010
152
root  -6.6588 38.4504 11.4128 179.208 55.2294 176.679
RightUpLeg  -20.1427 -9.73221 -11.6732
RightLeg  14.2794 -5.25765 -1.83951
RightFoot  6.50751 -2.65344 17.0699
RightToes  -1.39699e-009 0 -3.6325e-017
Spine  9.24166 -1.41711 -12.2309
Spine1  23.3984 -3.72577 2.27869
HEad  -22.0481 44.7849 -17.0935
LeftShoulder1  1.58779 -3.58942 -15.5949
LeftArm  5.0668 -15.0332 -59.911
LeftForeArm  -22.215 -70.323 -37.7496
LeftHand  -0.689886 2.86136 31.1384
RightShoulder  0.600562 -0.357616 12.0873
RightArm  6.45946 -14.3655 57.8258
RightForeArm  139.594 72.704 144.278
RightHand  -0.616319 3.18021 -8.57515
LeftUpLeg  -6.45586 -6.58373 3.4024
LeftLeg  25.1558 3.93734 2.3568
LeftFoot  -19.3283 -0.69677 -11.6044
LeftToes  3.40148e-010 1.80944e-010 1.01921e-010
153
root  -6.43152 38.3712 11.6015 179.678 54.6504 177.228
RightUpLeg  -20.8888 -10.4625 -10.9786
RightLeg  16.2382 -5.02478 -1.8373
RightFoot  5.69105 -2.42822 16.3787
RightToes  -1.39699e-009 0 -3.6325e-017
Spine  10.2723 -1.63919 -12.6577
Spine1  22.8234 -4.35367 2.82992
HEad  -22.6706 45.4483 -17.2351
LeftShoulder1  1.67498 -4.11394 -15.1663
LeftArm  3.39175 -17.7944 -61.115
LeftForeArm  -21.5216 -70.6406 -38.5381
LeftHand  -0.455839 3.49267 27.6148
RightShoulder  0.617601 -0.22747 11.8157
RightArm  5.18355 -13.7029 57.4922
RightForeArm  138.785 72.664 144.231
RightHand  -0.622644 2.99362 -8.84036
LeftUpLeg  -6.89863 -6.86638 4.26011
LeftLeg  26.0572 3.49465 2.20211
LeftFoot  -19.6546 -0.742684 -11.8025
LeftToes  3.40148e-010 1.80944e-010 1.01921e-010
154
root  -6.22112 38.3007 11.77 -179.735 54.1278 177.76
RightUpLeg  -21.6355 -11.1167 -10.2199
RightLeg  17.8446 -4.90196 -1.95167
RightFoot  5.10092 -2.24652 15.7029
RightToes  -1.39699e-009 0 -3.6325e-017
Spine  11.0344 -1.83532 -13.2486
Spine1  22.4412 -5.02928 3.59114
HEad  -23.487 45.931 -17.5406
LeftShoulder1  1.73029 -4.60508 -14.4514
LeftArm  1.76625 -19.8624 -62.1514
LeftForeArm  -18.0889 -71.5777 -40.9566
LeftHand  -0.357977 3.7085 24.5086
RightShoulder  0.621404 -0.153571 11.4749
RightArm  3.90904 -13.0775 57.4186
RightForeArm  138.336 72.5656 144.365
RightHand  -0.633245 2.82095 -9.16277
LeftUpLeg  -7.47382 -6.99722 5.12558
LeftLeg  26.8937 2.94024 1.96484
LeftFoot  -19.8845 -0.783489 -12.0448
LeftToes  3.40148e-010 1.80944e-010 1.01921e-010
155
root  -6.02941 38.2433 11.9117 -179.148 53.7873 178.358
RightUpLeg  -22.2335 -11.2855 -9.46979
RightLeg  19.1945 -5.00008 -2.14376
RightFoot  4.56065 -2.06355 14.9226
RightToes  -1.39699e-009 0 -3.6325e-017
Spine  11.5339 -1.95678 -13.7131
Spine1  22.4059 -5.57642 4.30879
HEad  -24.3923 46.2699 -17.9628
LeftShoulder1  1.73231 -4.80291 -13.9203
LeftArm  0.832191 -21.6172 -62.6984
LeftForeArm  -12.6532 -72.7782 -44.5167
LeftHand  -0.36375 3.51241 22.192
RightShoulder  0.632444 -0.0682945 11.3166
RightArm  2.72153 -12.512 57.3456
RightForeArm  138.569 72.4086 144.729
RightHand  -0.666499 2.85868 -9.58801
LeftUpLeg  -7.87472 -7.00423 5.99434
LeftLeg  27.5496 2.40955 1.71072
LeftFoot  -20.0861 -0.833488 -12.4307
LeftToes  3.40148e-010 1.80944e-010 1.01921e-010
